<svg xmlns="http://www.w3.org/2000/svg" viewBox="0 0 638.06 101.84"><title>Asset 1</title><path d="M90.84,25.41a13.33,13.33,0,0,0,3.5-.44V46.49H81V34.64A14.23,14.23,0,0,0,66.71,20.43H54.89V7H75.7a15.86,15.86,0,0,0-.29,3A15.41,15.41,0,0,0,90.84,25.41Zm3.5,30.31V77.2a13.77,13.77,0,0,0-3.5-.45A15.45,15.45,0,0,0,75.41,92.18a14.94,14.94,0,0,0,.3,3H54.89V81.74H66.7A14.24,14.24,0,0,0,81,67.54h0V55.72Zm-48.68,26V95.17H24.81a15.7,15.7,0,0,0,.29-3A15.44,15.44,0,0,0,9.71,76.75a13.77,13.77,0,0,0-3.5.45V55.72H19.6V67.53A14.23,14.23,0,0,0,33.81,81.74ZM24.81,7a15.86,15.86,0,0,1,.29,3A15.39,15.39,0,0,1,9.71,25.41,13.33,13.33,0,0,1,6.21,25V46.49H19.6V34.64A14.23,14.23,0,0,1,33.81,20.43H45.66V7Z" fill="#4188f7"/><path d="M60.34,69.51H39.77A8.74,8.74,0,0,1,31,60.76V40.19a8.74,8.74,0,0,1,8.74-8.75H60.34a8.75,8.75,0,0,1,8.75,8.75h0V60.76a8.75,8.75,0,0,1-8.75,8.75Z" fill="#58595b"/><path d="M100.14,9.6A9.58,9.58,0,1,1,90.56,0a9.58,9.58,0,0,1,9.58,9.6Zm-81,0A9.58,9.58,0,1,1,9.58,0a9.58,9.58,0,0,1,9.58,9.6Zm0,82.18a9.58,9.58,0,1,1-9.58-9.6,9.58,9.58,0,0,1,9.58,9.6Zm81,0a9.58,9.58,0,1,1-9.58-9.6,9.58,9.58,0,0,1,9.58,9.6Z" fill="#58595b"/><path d="M178.17,81.22V31.63L158.42,68.49h-7.9L130.78,31.63V81.22H116.29V6.61h15.36L154,49.18,176.41,6.61h15.36v75h-13.6Z" fill="#4188f7"/><path d="M221.17,82.53a21.24,21.24,0,0,1-13.6-4.83c-1.75-1.31-2.63-3.07-3.95-5.7a14,14,0,0,1-1.75-7,15.46,15.46,0,0,1,1.75-7.46,18.47,18.47,0,0,1,12.29-9.22A31.4,31.4,0,0,1,225.12,47a44,44,0,0,1,7.46.87,55.83,55.83,0,0,1,6.15,1.76V46.55a12.06,12.06,0,0,0-3.07-8.34A14,14,0,0,0,226,34.7a19.14,19.14,0,0,0-8.34,1.75,77.74,77.74,0,0,0-8.33,4.39l-4.39-8.77a39.3,39.3,0,0,1,23.26-7c8.33,0,14,2.19,18.87,5.7,4.38,3.51,6.58,9.65,6.58,17.11V65a4.2,4.2,0,0,0,.88,3.07c.43.88,1.31.88,2.63,1.32V81.65a40.81,40.81,0,0,1-6.14.88c-2.64,0-4.83-.44-6.15-1.75A5.53,5.53,0,0,1,242.24,76l-.44-3.07c-2.63,3.07-5.27,5.7-8.78,7.46C229.07,81.22,225.12,82.53,221.17,82.53Zm4-10.53a19.88,19.88,0,0,0,7-1.32A22.5,22.5,0,0,0,237,67.61q2.64-2,2.64-4V57.08a21.83,21.83,0,0,0-5.71-1.76,27.5,27.5,0,0,0-5.7-.43,13.9,13.9,0,0,0-8.78,2.63c-2.63,1.75-3.51,3.51-3.51,6.14a8,8,0,0,0,2.63,6.15A11.89,11.89,0,0,0,225.12,72Z" fill="#4188f7"/><path d="M262.42,101.84a24.74,24.74,0,0,1-7.89-1.32A30.87,30.87,0,0,1,247.94,97l6.15-9.65a8.79,8.79,0,0,0,2.63,1.75,9.86,9.86,0,0,0,3.07.44c2.2,0,3.07-.87,4.83-2.19a6.27,6.27,0,0,0,2.19-4.83v-57h14.05V81.22a18.94,18.94,0,0,1-1.76,8.33c-.88,2.64-2.63,4.39-4,6.59a14.93,14.93,0,0,1-6.14,4C267.69,101.84,265.06,101.84,262.42,101.84ZM267.69,18V4h14V18Z" fill="#4188f7"/><path d="M356.33,82.53a29.52,29.52,0,0,1-12.28-2.63,34,34,0,0,1-9.22-6.14,27.47,27.47,0,0,1-5.7-8.78,28.45,28.45,0,0,1,0-21.94,25,25,0,0,1,5.7-9.22,26.08,26.08,0,0,1,9.22-6.14,28,28,0,0,1,12.28-2.63,29.38,29.38,0,0,1,12.29,2.63c3.51,1.75,6.58,3.51,8.78,6.14a27.36,27.36,0,0,1,5.7,8.78,28.17,28.17,0,0,1,2.2,10.53v2.63a3.3,3.3,0,0,1-.44,2.2H342.29a21.63,21.63,0,0,0,1.76,5.7,37.89,37.89,0,0,0,3.07,4.39,9.08,9.08,0,0,0,4.39,2.63c1.75.88,3.07.88,5.26.88,2.64,0,5.27-.88,8.34-2.19a12.24,12.24,0,0,0,5.27-5.27l12.28,3.07A27.5,27.5,0,0,1,373,77.7,30.84,30.84,0,0,1,356.33,82.53Zm14.49-33.79a19.31,19.31,0,0,0-4.39-10.09c-2.64-2.63-6.15-3.51-9.66-3.51a18.76,18.76,0,0,0-5.26.88,37.13,37.13,0,0,0-4.39,2.63c-1.32,1.32-2.63,2.63-3.07,4.39s-1.32,3.51-1.76,5.7Z" fill="#4188f7"/><path d="M294.46,4h14V63.22a6,6,0,0,0,1.76,4.83,4.76,4.76,0,0,0,3.95,1.76,5.56,5.56,0,0,0,2.63-.44,7.1,7.1,0,0,0,2.63-1.32l2.2,10.53a29,29,0,0,1-6.59,2.2,22,22,0,0,1-7,1.31c-4.39,0-7.9-1.31-10.09-3.51-2.63-2.63-3.51-5.7-3.51-10.09V4Z" fill="#4188f7"/><path d="M412.07,82.53A55.12,55.12,0,0,1,398,80.34c-4.38-1.76-8.33-3.51-11.41-6.58L391.88,65c3.07,2.63,6.58,4,9.65,5.26a25.69,25.69,0,0,0,9.66,2.2,10.54,10.54,0,0,0,6.58-1.76c1.76-1.31,2.63-2.63,2.63-4.38s-.87-3.08-2.63-4.39a44.23,44.23,0,0,0-9.21-3.08C405,58,402,56.64,399.34,56.2a39.69,39.69,0,0,1-6.14-3.07,6.59,6.59,0,0,1-3.08-4,10.48,10.48,0,0,1-1.31-5.27A17.25,17.25,0,0,1,390.56,36,19.84,19.84,0,0,1,395,30.31a21.34,21.34,0,0,1,7-3.51,27.55,27.55,0,0,1,8.34-1.32,35.16,35.16,0,0,1,11.85,1.76,33.23,33.23,0,0,1,10.09,5.7l-5.7,8.34a33,33,0,0,0-16.24-6.14,9.31,9.31,0,0,0-6.14,1.75,6.3,6.3,0,0,0-2.2,4.83,5.52,5.52,0,0,0,.44,2.63,3.1,3.1,0,0,0,2.2,1.76,11.34,11.34,0,0,1,3.07,1.75c1.31.44,3.07.88,5.26,1.76,3.51.88,7,2.19,9.66,2.63a48.15,48.15,0,0,1,6.58,3.07,11.19,11.19,0,0,1,3.51,4.39A12.74,12.74,0,0,1,434,65.86,17.09,17.09,0,0,1,427.86,79C424.79,80.78,419.09,82.53,412.07,82.53Z" fill="#4188f7"/><path d="M477.45,9.69H449.37V81.22h-3.95V9.69H417.33V6.61H477C477.45,6.61,477.45,9.69,477.45,9.69Z" fill="#58595b"/><path d="M499,82.53a22.1,22.1,0,0,1-10.53-2.63c-3.07-1.76-6.14-3.51-8.33-6.14a25.1,25.1,0,0,1-5.71-9.22,32.46,32.46,0,0,1-2.19-11,30.47,30.47,0,0,1,2.19-11c1.32-3.07,3.07-6.58,5.71-8.78a37,37,0,0,1,8.33-6.14,20,20,0,0,1,10.1-2.2,28.17,28.17,0,0,1,10.53,2.2c3.07,1.75,6.14,3.51,8.34,6.14a27.53,27.53,0,0,1,5.7,8.78,28.67,28.67,0,0,1,2.19,11v1.75H475.7a31.77,31.77,0,0,0,2.63,9.22,38.15,38.15,0,0,0,4.83,7.9c2.19,2.63,4.39,3.51,7.46,4.83A19.74,19.74,0,0,0,499,79.46a22.21,22.21,0,0,0,5.71-.88A12,12,0,0,0,509.93,76a17.09,17.09,0,0,0,4.38-3.51c1.32-1.32,2.64-2.63,3.08-4.39l3.07.88c-.88,2.19-2.2,3.51-3.07,5.26-1.76,1.76-3.08,3.08-5.27,4a17.27,17.27,0,0,1-6.58,2.64A11.49,11.49,0,0,1,499,82.53Zm22.39-30.28c-.44-3.07-.88-6.58-2.2-9.21a27,27,0,0,0-4.83-7.46,21.76,21.76,0,0,0-7.46-4.83A18.94,18.94,0,0,0,498.52,29c-3.08,0-6.15.44-8.34,1.76a25,25,0,0,0-7,4.83A21.85,21.85,0,0,0,478.33,43a21.81,21.81,0,0,0-2.19,9.21Z" fill="#58595b"/><path d="M533.18,53.57a28.67,28.67,0,0,1,2.2-11c1.31-3.07,3.07-6.58,5.7-8.78a37.28,37.28,0,0,1,8.34-6.14c3.07-1.76,7-2.2,10.53-2.2a30.16,30.16,0,0,1,12.73,3.08A22.82,22.82,0,0,1,581,37.33l-3.51,1.32a21.29,21.29,0,0,0-7.46-7.9c-3.08-2.19-6.59-2.63-10.54-2.63a19.89,19.89,0,0,0-8.77,2.19c-2.64,1.32-5.27,2.63-7.46,5.27a29.18,29.18,0,0,0-4.83,7.9c-1.32,2.63-1.76,6.14-1.76,9.65a25.6,25.6,0,0,0,2.2,9.65,31.28,31.28,0,0,0,4.83,8.34c2.19,2.64,4.38,3.95,7.46,5.71A20,20,0,0,0,560,79a29.62,29.62,0,0,0,6.15-.88c2.19-.44,3.51-1.31,5.7-2.63a37.89,37.89,0,0,0,4.39-3.07,10.33,10.33,0,0,0,2.63-4l3.51,1.32a20.36,20.36,0,0,1-3.07,5.26,37.43,37.43,0,0,1-4.83,4,17.1,17.1,0,0,1-6.58,2.63,43.12,43.12,0,0,1-7.46.88,22.1,22.1,0,0,1-10.53-2.63c-3.07-1.76-6.14-3.51-8.34-6.14a27.47,27.47,0,0,1-5.7-8.78C533.62,61.47,533.18,57.52,533.18,53.57Z" fill="#58595b"/><path d="M638.06,81.22h-3.51V50.5c0-14.48-4.82-21.94-14.48-21.94a22.22,22.22,0,0,0-7.46,1.31A31.71,31.71,0,0,0,606,33.38a32.87,32.87,0,0,0-5.27,5.71,14.31,14.31,0,0,0-3.07,7.46V80.78h-3.51V3.54h3.51v36c1.32-2.2,2.63-4,3.95-6.15A47.48,47.48,0,0,1,606.91,29c2.19-1.31,4-2.63,6.14-2.63a18.14,18.14,0,0,1,7-1.32c6.15,0,10.1,2.2,13.17,6.59,2.63,4.39,4.39,10.53,4.39,18.43V81.65h.43Z" fill="#58595b"/></svg>